<svg width="55" height="55" viewBox="0 0 55 55" fill="none" xmlns="http://www.w3.org/2000/svg">
<g clip-path="url(#clip0_95_22)">
<path d="M27.5 55C42.6878 55 55 42.6878 55 27.5C55 12.3122 42.6878 0 27.5 0C12.3122 0 0 12.3122 0 27.5C0 42.6878 12.3122 55 27.5 55Z" fill="url(#paint0_linear_95_22)"/>
<path d="M10.2415 28.845C13.4563 27.0742 17.0448 25.5963 20.3978 24.1108C26.1662 21.6778 31.9575 19.2869 37.8072 17.061C38.9454 16.6817 40.9903 16.3108 41.1909 17.9975C41.0811 20.3849 40.6294 22.7584 40.3196 25.1319C39.5332 30.3514 38.6243 35.553 37.738 40.7553C37.4326 42.4882 35.2618 43.3853 33.8728 42.2763C30.5348 40.0215 27.1711 37.7888 23.8756 35.4818C22.7961 34.3848 23.7971 32.8097 24.7612 32.0264C27.5106 29.3169 30.4263 27.015 33.0319 24.1655C33.7348 22.4682 31.6581 23.8986 30.9731 24.3369C27.2092 26.9306 23.5375 29.6827 19.5692 31.9622C17.5422 33.078 15.1797 32.1245 13.1537 31.5018C11.337 30.7497 8.67518 29.9918 10.2415 28.845Z" fill="white"/>
</g>
<defs>
<linearGradient id="paint0_linear_95_22" x1="20.6282" y1="2.2935" x2="6.87821" y2="34.375" gradientUnits="userSpaceOnUse">
<stop stop-color="#37AEE2"/>
<stop offset="1" stop-color="#1E96C8"/>
</linearGradient>
<clipPath id="clip0_95_22">
<rect width="55" height="55" fill="white"/>
</clipPath>
</defs>
</svg>
