<svg width="55" height="55" viewBox="0 0 55 55" fill="none" xmlns="http://www.w3.org/2000/svg">
<path d="M27.5 0C12.3118 0 0 12.3118 0 27.5C0 42.6881 12.3118 55 27.5 55C42.6881 55 55 42.6881 55 27.5C55 12.3118 42.6881 0 27.5 0ZM42.2795 37.9358C41.1058 38.6698 36.3368 38.8884 35.1822 38.0496C34.549 37.5897 33.9699 37.0142 33.42 36.4661C33.0351 36.083 32.5985 35.8971 32.2678 35.4813C31.9979 35.1411 31.8127 34.7396 31.5285 34.4036C31.0489 33.84 30.3108 33.3604 29.7269 34.0491C28.8476 35.0851 29.8651 37.1196 28.6927 37.8935C28.2995 38.1533 27.9027 38.2283 27.4112 38.1914L26.3228 38.2408C25.6835 38.2534 24.6708 38.2593 23.9433 38.1282C23.1319 37.9817 22.4617 37.5385 21.7277 37.2132C20.3349 36.5954 19.0081 35.7536 17.9983 34.5877C15.2501 31.4123 11.5588 27.0454 10.1248 23.0533C9.82994 22.2329 9.05069 20.6083 9.78943 19.9047C10.7939 19.1749 15.7237 18.9694 16.4928 20.0978C16.805 20.5565 17.0022 21.2273 17.2232 21.7474C17.4985 22.3956 17.6474 23.0062 18.0776 23.5799C18.4582 24.0887 18.7388 24.6005 19.0331 25.1581C19.3638 25.7842 19.676 26.3847 20.0781 26.9608C20.351 27.3528 21.0724 28.1327 21.5282 28.1905C22.641 28.3329 22.5719 25.6287 22.4891 24.9686C22.4099 24.3324 22.3896 23.6574 22.4105 23.0122C22.4283 22.4617 22.4778 21.686 22.1519 21.2368C21.6205 20.5041 20.4367 21.0522 20.3444 20.0674C20.5398 19.788 20.4987 19.5401 21.804 19.11C22.8323 18.7722 23.4965 18.7829 24.1745 18.8371C25.5566 18.948 27.0222 18.5738 28.3567 19.0218C29.6316 19.4514 29.4344 21.2631 29.3915 22.3485C29.3337 23.8302 29.3957 25.2766 29.3915 26.7809C29.3897 27.4654 29.3623 28.1321 30.1976 28.0761C30.9804 28.0243 31.0602 27.3654 31.4338 26.822C31.9533 26.0642 32.4305 25.2957 32.9595 24.5409C33.6726 23.5204 33.8883 22.3735 34.5597 21.328C34.7998 20.9545 35.0065 20.1585 35.3765 19.863C35.6565 19.6384 36.1885 19.7558 36.5275 19.7558H37.3335C37.9501 19.7558 38.5792 19.751 39.2131 19.7731C40.1258 19.8046 41.1481 19.5949 42.0531 19.723C45.9582 20.2741 37.1447 28.6224 37.6034 30.113C37.9203 31.1424 39.931 32.2928 40.6566 33.1358C41.62 34.2588 44.5856 36.4911 42.2795 37.9358Z" fill="#4C75A3"/>
</svg>
