<svg width="35" height="28" viewBox="0 0 35 28" fill="none" xmlns="http://www.w3.org/2000/svg">
<path d="M0 1C0 0.447715 0.447715 0 1 0H34C34.5523 0 35 0.447715 35 1C35 1.55228 34.5523 2 34 2H1C0.447715 2 0 1.55228 0 1Z" fill="#03045E"/>
<path d="M0 14C0 13.4477 0.447715 13 1 13H34C34.5523 13 35 13.4477 35 14C35 14.5523 34.5523 15 34 15H1C0.447715 15 0 14.5523 0 14Z" fill="#03045E"/>
<path d="M0 27C0 26.4477 0.447715 26 1 26H34C34.5523 26 35 26.4477 35 27C35 27.5523 34.5523 28 34 28H1C0.447715 28 0 27.5523 0 27Z" fill="#03045E"/>
</svg>
