<svg width="36" height="39" viewBox="0 0 36 39" fill="#FFFFFF" xmlns="http://www.w3.org/2000/svg">
<path d="M9.63392 10.5259C8.69501 10.5259 7.93385 11.3542 7.93385 12.3759C7.93385 13.3977 8.69501 14.226 9.63392 14.226V10.5259ZM25.5012 14.226C26.4401 14.226 27.2012 13.3977 27.2012 12.3759C27.2012 11.3542 26.4401 10.5259 25.5012 10.5259V14.226ZM11.6173 16.8384C10.6784 16.8384 9.91726 17.6667 9.91726 18.6885C9.91726 19.7102 10.6784 20.5386 11.6173 20.5386V16.8384ZM23.5178 20.5386C24.4567 20.5386 25.2178 19.7102 25.2178 18.6885C25.2178 17.6667 24.4567 16.8384 23.5178 16.8384V20.5386ZM10.0034 1.85014V0L9.991 9.88057e-05L10.0034 1.85014ZM25.134 1.85014L25.1469 4.94029e-05H25.134V1.85014ZM33.4348 11.0192L31.7347 11.0056V11.0192H33.4348ZM33.4348 22.1518H31.7347V22.1654L33.4348 22.1518ZM25.1317 31.3209V33.171H25.1442L25.1317 31.3209ZM10.0034 31.3209V29.4708C9.71232 29.4708 9.42612 29.5522 9.1722 29.7071L10.0034 31.3209ZM1.70029 36.3852H0.000226493C0.000226493 37.0419 0.320178 37.6495 0.840896 37.9815C1.36159 38.3135 2.00503 38.3202 2.53148 37.999L1.70029 36.3852ZM1.70029 11.0192H3.4004L3.40031 11.0056L1.70029 11.0192ZM9.63392 14.226H25.5012V10.5259H9.63392V14.226ZM11.6173 20.5386H23.5178V16.8384H11.6173V20.5386ZM10.0034 3.70024H25.134V4.94029e-05L10.0034 0V3.70024ZM25.121 3.70019C28.8011 3.73046 31.7617 7.00095 31.7347 11.0056L35.1349 11.0328C35.1757 4.98495 30.7043 0.0457837 25.1469 4.94029e-05L25.121 3.70019ZM31.7347 11.0192V22.1518H35.1349V11.0192H31.7347ZM31.7347 22.1654C31.7477 24.089 31.0581 25.9391 29.8173 27.3092L32.2391 29.9065C34.1128 27.8373 35.1544 25.0432 35.1349 22.1383L31.7347 22.1654ZM29.8173 27.3092C28.5767 28.6792 26.8868 29.4568 25.1192 29.4708L25.1442 33.171C27.8133 33.1498 30.3656 31.9756 32.2391 29.9065L29.8173 27.3092ZM25.1317 29.4708H10.0034V33.171H25.1317V29.4708ZM9.1722 29.7071L0.869094 34.7715L2.53148 37.999L10.8346 32.9347L9.1722 29.7071ZM3.40035 36.3852L3.4004 11.0192H0.000226493V36.3852H3.40035ZM3.40031 11.0056C3.38732 9.08216 4.07702 7.23187 5.31768 5.86181L2.89591 3.2646C1.02226 5.33365 -0.0193355 8.12799 0.000271889 11.0328L3.40031 11.0056ZM5.31768 5.86181C6.55834 4.49178 8.2483 3.7142 10.0158 3.70019L9.991 9.88057e-05C7.32174 0.0212639 4.76954 1.19556 2.89591 3.2646L5.31768 5.86181Z" fill="white"/>
</svg>
