<svg width="50" height="70" viewBox="0 0 70 80" fill="none" xmlns="http://www.w3.org/2000/svg">
<path d="M15 0C12.25 0 10 2.25 10 5V75C10 77.75 12.25 80 15 80H65C67.75 80 70 77.75 70 75V20L50 0H15Z" fill="#E2E5E7"/>
<path d="M55 20H70L50 0V15C50 17.75 52.25 20 55 20Z" fill="#B0B7BD"/>
<path d="M70 35L55 20H70V35Z" fill="#CAD1D8"/>
<path d="M60 65C60 66.375 58.875 67.5 57.5 67.5H2.5C1.125 67.5 0 66.375 0 65V40C0 38.625 1.125 37.5 2.5 37.5H57.5C58.875 37.5 60 38.625 60 40V65Z" fill="#1A00AB"/>
<path d="M57.5 67.5H10V70H57.5C58.875 70 60 68.875 60 67.5V65C60 66.375 58.875 67.5 57.5 67.5Z" fill="#CAD1D8"/>
<path d="M13.3068 59H8.59801V44.4545H13.456C14.8812 44.4545 16.1051 44.7457 17.1278 45.3281C18.1506 45.9058 18.9342 46.7367 19.4787 47.821C20.0279 48.9006 20.3026 50.1956 20.3026 51.706C20.3026 53.2211 20.0256 54.5232 19.4716 55.6122C18.9223 56.7012 18.1269 57.5393 17.0852 58.1264C16.0436 58.7088 14.7841 59 13.3068 59ZM10.7926 57.0824H13.1861C14.294 57.0824 15.215 56.8741 15.9489 56.4574C16.6828 56.036 17.232 55.4276 17.5966 54.6321C17.9612 53.8319 18.1435 52.8565 18.1435 51.706C18.1435 50.5649 17.9612 49.5966 17.5966 48.8011C17.2367 48.0057 16.6993 47.402 15.9844 46.9901C15.2694 46.5781 14.3816 46.3722 13.321 46.3722H10.7926V57.0824Z" fill="white"/>
<path d="M35.6665 51.7273C35.6665 53.2803 35.3825 54.6155 34.8143 55.733C34.2461 56.8456 33.4672 57.7027 32.4776 58.304C31.4928 58.9006 30.373 59.1989 29.1183 59.1989C27.8588 59.1989 26.7343 58.9006 25.7447 58.304C24.7598 57.7027 23.9833 56.8433 23.4151 55.7259C22.8469 54.6084 22.5629 53.2756 22.5629 51.7273C22.5629 50.1742 22.8469 48.8414 23.4151 47.7287C23.9833 46.6113 24.7598 45.7543 25.7447 45.1577C26.7343 44.5563 27.8588 44.2557 29.1183 44.2557C30.373 44.2557 31.4928 44.5563 32.4776 45.1577C33.4672 45.7543 34.2461 46.6113 34.8143 47.7287C35.3825 48.8414 35.6665 50.1742 35.6665 51.7273ZM33.4933 51.7273C33.4933 50.5436 33.3015 49.5469 32.918 48.7372C32.5392 47.9228 32.0183 47.3073 31.3555 46.8906C30.6973 46.4692 29.9516 46.2585 29.1183 46.2585C28.2802 46.2585 27.5321 46.4692 26.8739 46.8906C26.2158 47.3073 25.695 47.9228 25.3114 48.7372C24.9326 49.5469 24.7433 50.5436 24.7433 51.7273C24.7433 52.911 24.9326 53.91 25.3114 54.7244C25.695 55.5341 26.2158 56.1496 26.8739 56.571C27.5321 56.9877 28.2802 57.196 29.1183 57.196C29.9516 57.196 30.6973 56.9877 31.3555 56.571C32.0183 56.1496 32.5392 55.5341 32.918 54.7244C33.3015 53.91 33.4933 52.911 33.4933 51.7273Z" fill="white"/>
<path d="M50.4837 49.1847H48.2678C48.1825 48.7112 48.0239 48.2945 47.7919 47.9347C47.5599 47.5748 47.2758 47.2694 46.9396 47.0185C46.6035 46.7675 46.227 46.5781 45.8104 46.4503C45.3984 46.3224 44.9605 46.2585 44.4964 46.2585C43.6584 46.2585 42.9079 46.4692 42.245 46.8906C41.5869 47.312 41.0661 47.9299 40.6825 48.7443C40.3037 49.5587 40.1143 50.553 40.1143 51.7273C40.1143 52.911 40.3037 53.91 40.6825 54.7244C41.0661 55.5388 41.5893 56.1544 42.2521 56.571C42.915 56.9877 43.6607 57.196 44.4893 57.196C44.9486 57.196 45.3842 57.1345 45.7962 57.0114C46.2128 56.8835 46.5893 56.6965 46.9254 56.4503C47.2616 56.2041 47.5457 55.9034 47.7777 55.5483C48.0144 55.1884 48.1778 54.7765 48.2678 54.3125L50.4837 54.3196C50.3653 55.0346 50.1357 55.6927 49.7947 56.294C49.4586 56.8906 49.0253 57.4067 48.495 57.8423C47.9695 58.2732 47.3681 58.607 46.6911 58.8438C46.014 59.0805 45.2753 59.1989 44.4751 59.1989C43.2157 59.1989 42.0935 58.9006 41.1087 58.304C40.1238 57.7027 39.3473 56.8433 38.7791 55.7259C38.2157 54.6084 37.9339 53.2756 37.9339 51.7273C37.9339 50.1742 38.218 48.8414 38.7862 47.7287C39.3544 46.6113 40.1309 45.7543 41.1158 45.1577C42.1006 44.5563 43.2204 44.2557 44.4751 44.2557C45.2469 44.2557 45.9666 44.367 46.6342 44.5895C47.3066 44.8073 47.9103 45.1293 48.4453 45.5554C48.9804 45.9768 49.4231 46.4929 49.7734 47.1037C50.1238 47.7098 50.3606 48.4034 50.4837 49.1847Z" fill="white"/>
</svg>
