<svg width="50" height="70" viewBox="0 0 70 80" fill="none" xmlns="http://www.w3.org/2000/svg">
<path d="M15 0C12.25 0 10 2.25 10 5V75C10 77.75 12.25 80 15 80H65C67.75 80 70 77.75 70 75V20L50 0H15Z" fill="#E2E5E7"/>
<path d="M55 20H70L50 0V15C50 17.75 52.25 20 55 20Z" fill="#B0B7BD"/>
<path d="M70 35L55 20H70V35Z" fill="#CAD1D8"/>
<path d="M60 65C60 66.375 58.875 67.5 57.5 67.5H2.5C1.125 67.5 0 66.375 0 65V40C0 38.625 1.125 37.5 2.5 37.5H57.5C58.875 37.5 60 38.625 60 40V65Z" fill="#50BEE8"/>
<path d="M17.1825 47.3675C17.1825 45.6875 19.8225 45.6875 19.8225 47.3675V55.2625C19.8225 58.4025 18.3225 60.3025 14.865 60.3025C13.165 60.3025 11.7475 59.84 10.5075 58.2425C9.4875 57.0225 11.4075 55.265 12.4475 56.5425C13.2875 57.5825 14.1875 57.8225 15.065 57.7825C16.1825 57.7425 17.165 57.24 17.185 55.2625V47.3675H17.1825Z" fill="white"/>
<path d="M23.335 47.3675C23.335 46.7075 23.855 45.9875 24.695 45.9875H29.3125C31.9125 45.9875 34.2525 47.7275 34.2525 51.0625C34.2525 54.2225 31.9125 55.9825 29.3125 55.9825H25.975V58.6225C25.975 59.5025 25.415 60 24.695 60C24.035 60 23.335 59.5025 23.335 58.6225V47.3675ZM25.975 48.505V53.485H29.3125C30.6525 53.485 31.7125 52.3025 31.7125 51.0625C31.7125 49.665 30.6525 48.505 29.3125 48.505H25.975Z" fill="white"/>
<path d="M48.5275 58.4625C47.1075 59.6425 45.3675 60.1425 43.61 60.1425C39.41 60.1425 36.4325 57.745 36.4325 52.985C36.4325 48.95 39.5725 45.8125 43.7875 45.8125C45.3675 45.8125 47.105 46.35 48.345 47.57C49.5625 48.7675 47.805 50.5475 46.6075 49.49C45.8675 48.77 44.8275 48.23 43.7875 48.23C41.37 48.23 39.0325 50.1675 39.0325 52.985C39.0325 55.945 40.99 57.745 43.61 57.745C44.8275 57.745 45.8675 57.3825 46.6075 56.845V54.3875H43.61C41.83 54.3875 42.01 51.9475 43.61 51.9475H47.6075C48.3475 51.9475 49.025 52.5075 49.025 53.1275V57.385C49.025 57.745 48.8675 58.08 48.5275 58.4625Z" fill="white"/>
<path d="M57.5 67.5H10V70H57.5C58.875 70 60 68.875 60 67.5V65C60 66.375 58.875 67.5 57.5 67.5Z" fill="#CAD1D8"/>
</svg>
