<svg width="50" height="70" viewBox="0 0 70 80" fill="none" xmlns="http://www.w3.org/2000/svg">
<path d="M15 0C12.25 0 10 2.25 10 5V75C10 77.75 12.25 80 15 80H65C67.75 80 70 77.75 70 75V20L50 0H15Z" fill="#E2E5E7"/>
<path d="M55 20H70L50 0V15C50 17.75 52.25 20 55 20Z" fill="#B0B7BD"/>
<path d="M70 35L55 20H70V35Z" fill="#CAD1D8"/>
<path d="M60 65C60 66.375 58.875 67.5 57.5 67.5H2.5C1.125 67.5 0 66.375 0 65V40C0 38.625 1.125 37.5 2.5 37.5H57.5C58.875 37.5 60 38.625 60 40V65Z" fill="#B80000"/>
<path d="M57.5 67.5H10V70H57.5C58.875 70 60 68.875 60 67.5V65C60 66.375 58.875 67.5 57.5 67.5Z" fill="#CAD1D8"/>
<path d="M8.75781 61V45H14.4609C15.7057 45 16.737 45.2266 17.5547 45.6797C18.3724 46.1328 18.9844 46.7526 19.3906 47.5391C19.7969 48.3203 20 49.2005 20 50.1797C20 51.1641 19.7943 52.0495 19.3828 52.8359C18.9766 53.6172 18.362 54.237 17.5391 54.6953C16.7214 55.1484 15.6927 55.375 14.4531 55.375H10.5312V53.3281H14.2344C15.0208 53.3281 15.6589 53.1927 16.1484 52.9219C16.638 52.6458 16.9974 52.2708 17.2266 51.7969C17.4557 51.3229 17.5703 50.7839 17.5703 50.1797C17.5703 49.5755 17.4557 49.0391 17.2266 48.5703C16.9974 48.1016 16.6354 47.7344 16.1406 47.4688C15.651 47.2031 15.0052 47.0703 14.2031 47.0703H11.1719V61H8.75781Z" fill="white"/>
<path d="M28.0098 61H22.8301V45H28.1738C29.7415 45 31.0879 45.3203 32.2129 45.9609C33.3379 46.5964 34.1999 47.5104 34.7988 48.7031C35.403 49.8906 35.7051 51.3151 35.7051 52.9766C35.7051 54.6432 35.4004 56.0755 34.791 57.2734C34.1868 58.4714 33.3118 59.3932 32.166 60.0391C31.0202 60.6797 29.6348 61 28.0098 61ZM25.2441 58.8906H27.877C29.0957 58.8906 30.1087 58.6615 30.916 58.2031C31.7233 57.7396 32.3275 57.0703 32.7285 56.1953C33.1296 55.3151 33.3301 54.2422 33.3301 52.9766C33.3301 51.7214 33.1296 50.6563 32.7285 49.7812C32.3327 48.9062 31.7415 48.2422 30.9551 47.7891C30.1686 47.3359 29.1921 47.1094 28.0254 47.1094H25.2441V58.8906Z" fill="white"/>
<path d="M38.707 61V45H48.6289V47.0781H41.1211V51.9531H47.918V54.0234H41.1211V61H38.707Z" fill="white"/>
</svg>
