<svg width="50" height="70" viewBox="0 0 69 80" fill="none" xmlns="http://www.w3.org/2000/svg">
<path d="M14 0C11.25 0 9 2.25 9 5V75C9 77.75 11.25 80 14 80H64C66.75 80 69 77.75 69 75V20L49 0H14Z" fill="#E2E5E7"/>
<path d="M54 20H69L49 0V15C49 17.75 51.25 20 54 20Z" fill="#B0B7BD"/>
<path d="M69 35L54 20H69V35Z" fill="#CAD1D8"/>
<path d="M55 64.5C55 65.875 53.9688 67 52.7083 67H2.29167C1.03125 67 0 65.875 0 64.5V39.5C0 38.125 1.03125 37 2.29167 37H52.7083C53.9688 37 55 38.125 55 39.5V64.5Z" fill="#FF5500"/>
<path d="M56.5 67.5H9V70H56.5C57.875 70 59 68.875 59 67.5V65C59 66.375 57.875 67.5 56.5 67.5Z" fill="#CAD1D8"/>
<path d="M9.59801 60V45.4545H14.7827C15.9143 45.4545 16.8518 45.6605 17.5952 46.0724C18.3385 46.4844 18.8949 47.0478 19.2642 47.7628C19.6335 48.473 19.8182 49.2732 19.8182 50.1634C19.8182 51.0582 19.6312 51.8632 19.2571 52.5781C18.8878 53.2884 18.3291 53.8518 17.581 54.2685C16.8376 54.6804 15.9025 54.8864 14.7756 54.8864H11.2102V53.0256H14.5767C15.2917 53.0256 15.8717 52.9025 16.3168 52.6562C16.7618 52.4053 17.0885 52.0644 17.2969 51.6335C17.5052 51.2027 17.6094 50.7126 17.6094 50.1634C17.6094 49.6141 17.5052 49.1264 17.2969 48.7003C17.0885 48.2741 16.7595 47.9403 16.3097 47.6989C15.8646 47.4574 15.2775 47.3366 14.5483 47.3366H11.7926V60H9.59801Z" fill="white"/>
<path d="M22.391 60V45.4545H27.5756C28.7073 45.4545 29.6448 45.6605 30.3881 46.0724C31.1315 46.4844 31.6879 47.0478 32.0572 47.7628C32.4265 48.473 32.6112 49.2732 32.6112 50.1634C32.6112 51.0582 32.4241 51.8632 32.0501 52.5781C31.6808 53.2884 31.122 53.8518 30.3739 54.2685C29.6306 54.6804 28.6954 54.8864 27.5685 54.8864H24.0032V53.0256H27.3697C28.0846 53.0256 28.6647 52.9025 29.1097 52.6562C29.5548 52.4053 29.8815 52.0644 30.0898 51.6335C30.2982 51.2027 30.4023 50.7126 30.4023 50.1634C30.4023 49.6141 30.2982 49.1264 30.0898 48.7003C29.8815 48.2741 29.5524 47.9403 29.1026 47.6989C28.6576 47.4574 28.0704 47.3366 27.3413 47.3366H24.5856V60H22.391Z" fill="white"/>
<path d="M34.4666 47.3438V45.4545H45.7237V47.3438H41.1854V60H38.9979V47.3438H34.4666Z" fill="white"/>
</svg>
