<svg width="50" height="70" viewBox="0 0 69 80" fill="none" xmlns="http://www.w3.org/2000/svg">
<path d="M14 0C11.25 0 9 2.25 9 5V75C9 77.75 11.25 80 14 80H64C66.75 80 69 77.75 69 75V20L49 0H14Z" fill="#E2E5E7"/>
<path d="M54 20H69L49 0V15C49 17.75 51.25 20 54 20Z" fill="#B0B7BD"/>
<path d="M69 35L54 20H69V35Z" fill="#CAD1D8"/>
<path d="M55 64.5C55 65.875 53.9688 67 52.7083 67H2.29167C1.03125 67 0 65.875 0 64.5V39.5C0 38.125 1.03125 37 2.29167 37H52.7083C53.9688 37 55 38.125 55 39.5V64.5Z" fill="#039700"/>
<path d="M56.5 67.5H9V70H56.5C57.875 70 59 68.875 59 67.5V65C59 66.375 57.875 67.5 56.5 67.5Z" fill="#CAD1D8"/>
<path d="M12.125 44.4545L15.6051 50.1435H15.7188L19.1989 44.4545H21.7415L17.2102 51.7273L21.7699 59H19.2131L15.7188 53.3892H15.6051L12.1108 59H9.55398L14.1918 51.7273L9.58239 44.4545H12.125Z" fill="white"/>
<path d="M23.9183 59V44.4545H26.1129V57.1108H32.7038V59H23.9183Z" fill="white"/>
<path d="M43.1406 48.2756C43.0649 47.6032 42.7524 47.0824 42.2031 46.7131C41.6539 46.339 40.9626 46.152 40.1293 46.152C39.5327 46.152 39.0166 46.2467 38.581 46.4361C38.1454 46.6207 37.8068 46.8764 37.5653 47.2031C37.3286 47.5251 37.2102 47.892 37.2102 48.304C37.2102 48.6496 37.2907 48.9479 37.4517 49.1989C37.6174 49.4498 37.8329 49.6605 38.098 49.831C38.3679 49.9967 38.6567 50.1364 38.9645 50.25C39.2723 50.3589 39.5682 50.4489 39.8523 50.5199L41.2727 50.8892C41.7367 51.0028 42.2126 51.1567 42.7003 51.3509C43.188 51.545 43.6402 51.8007 44.0568 52.1179C44.4735 52.4351 44.8097 52.8281 45.0653 53.2969C45.3258 53.7656 45.456 54.3267 45.456 54.9801C45.456 55.804 45.2429 56.5355 44.8168 57.1747C44.3954 57.8139 43.7822 58.3182 42.9773 58.6875C42.1771 59.0568 41.2088 59.2415 40.0724 59.2415C38.9834 59.2415 38.0412 59.0687 37.2457 58.723C36.4503 58.3774 35.8277 57.8873 35.3778 57.2528C34.928 56.6136 34.6795 55.8561 34.6321 54.9801H36.8338C36.8764 55.5057 37.0469 55.9437 37.3452 56.294C37.6482 56.6397 38.0341 56.8977 38.5028 57.0682C38.9763 57.2339 39.4948 57.3168 40.0582 57.3168C40.6785 57.3168 41.2301 57.2197 41.7131 57.0256C42.2008 56.8267 42.5843 56.5521 42.8636 56.2017C43.143 55.8466 43.2827 55.4323 43.2827 54.9588C43.2827 54.5279 43.1596 54.1752 42.9134 53.9006C42.6719 53.6259 42.3428 53.3987 41.9261 53.2188C41.5142 53.0388 41.0478 52.8802 40.527 52.7429L38.8082 52.2741C37.6435 51.9569 36.7202 51.4905 36.0384 50.875C35.3613 50.2595 35.0227 49.4451 35.0227 48.4318C35.0227 47.5937 35.25 46.8622 35.7045 46.2372C36.1591 45.6122 36.7746 45.1269 37.5511 44.7812C38.3277 44.4309 39.2036 44.2557 40.179 44.2557C41.1638 44.2557 42.0327 44.4285 42.7855 44.7741C43.5431 45.1198 44.1397 45.5956 44.5753 46.2017C45.0109 46.803 45.2382 47.4943 45.2571 48.2756H43.1406Z" fill="white"/>
</svg>
