<svg width="50" height="70" viewBox="0 0 69 80" fill="none" xmlns="http://www.w3.org/2000/svg">
<path d="M14 0C11.25 0 9 2.25 9 5V75C9 77.75 11.25 80 14 80H64C66.75 80 69 77.75 69 75V20L49 0H14Z" fill="#E2E5E7"/>
<path d="M54 20H69L49 0V15C49 17.75 51.25 20 54 20Z" fill="#B0B7BD"/>
<path d="M69 35L54 20H69V35Z" fill="#CAD1D8"/>
<path d="M55 64.5C55 65.875 53.9688 67 52.7083 67H2.29167C1.03125 67 0 65.875 0 64.5V39.5C0 38.125 1.03125 37 2.29167 37H52.7083C53.9688 37 55 38.125 55 39.5V64.5Z" fill="url(#paint0_linear_212_2)"/>
<path d="M56.5 67.5H9V70H56.5C57.875 70 59 68.875 59 67.5V65C59 66.375 57.875 67.5 56.5 67.5Z" fill="#CAD1D8"/>
<path d="M13.2216 59V57.5369L20.8707 46.3438H13.1577V44.4545H23.5554V45.9176L15.9062 57.1108H23.6193V59H13.2216Z" fill="white"/>
<path d="M28.5661 44.4545V59H26.3714V44.4545H28.5661Z" fill="white"/>
<path d="M31.7621 59V44.4545H36.9467C38.0784 44.4545 39.0159 44.6605 39.7592 45.0724C40.5026 45.4844 41.059 46.0478 41.4283 46.7628C41.7976 47.473 41.9822 48.2732 41.9822 49.1634C41.9822 50.0582 41.7952 50.8632 41.4212 51.5781C41.0518 52.2884 40.4931 52.8518 39.745 53.2685C39.0017 53.6804 38.0665 53.8864 36.9396 53.8864H33.3743V52.0256H36.7408C37.4557 52.0256 38.0357 51.9025 38.4808 51.6562C38.9259 51.4053 39.2526 51.0644 39.4609 50.6335C39.6693 50.2027 39.7734 49.7126 39.7734 49.1634C39.7734 48.6141 39.6693 48.1264 39.4609 47.7003C39.2526 47.2741 38.9235 46.9403 38.4737 46.6989C38.0286 46.4574 37.4415 46.3366 36.7124 46.3366H33.9567V59H31.7621Z" fill="white"/>
<defs>
<linearGradient id="paint0_linear_212_2" x1="0" y1="40" x2="69" y2="40" gradientUnits="userSpaceOnUse">
<stop stop-color="#FF00BF"/>
<stop offset="0.506824" stop-color="#100CFF"/>
<stop offset="0.996824" stop-color="#039700"/>
</linearGradient>
</defs>
</svg>
