<svg width="51" height="51" viewBox="0 0 51 51" fill="none" xmlns="http://www.w3.org/2000/svg">
<path d="M40 21C40 21 31.7463 25 26 25C20.2536 25 12 21 12 21M26 26V29.3193M26 29.3193C26 30.6343 26.3859 31.9214 27.1118 33.0274L33 42M26 29.3193C26 30.6343 25.6141 31.9214 24.8882 33.0274L19 42M13.75 5.14388C17.2065 3.14438 21.2197 2 25.5 2C38.4786 2 49 12.5213 49 25.5C49 38.4786 38.4786 49 25.5 49C12.5213 49 2 38.4786 2 25.5C2 21.2197 3.14438 17.2065 5.14388 13.75M30 14C30 16.7614 27.9853 19 25.5 19C23.0147 19 21 16.7614 21 14C21 11.2386 23.0147 9 25.5 9C27.9853 9 30 11.2386 30 14Z" stroke="#23263D" stroke-width="4" stroke-linecap="round"/>
</svg>
