<svg width="47" height="47" viewBox="0 0 47 47" fill="none" xmlns="http://www.w3.org/2000/svg">
<mask id="path-1-inside-1_75_11" fill="white">
<path fill-rule="evenodd" clip-rule="evenodd" d="M21.5946 1.90541C21.5946 0.853079 22.4477 0 23.5 0C24.5523 0 25.4054 0.853079 25.4054 1.90541V4.44595C25.4054 5.49827 24.5523 6.35135 23.5 6.35135C22.4477 6.35135 21.5946 5.49827 21.5946 4.44595V1.90541ZM6.42841 6.42841C5.6843 7.17251 5.6843 8.37895 6.42841 9.12306L8.6059 11.3005C9.35001 12.0447 10.5564 12.0447 11.3005 11.3005C12.0447 10.5564 12.0447 9.35001 11.3005 8.6059L9.12305 6.42841C8.37895 5.6843 7.17251 5.6843 6.42841 6.42841ZM1.58784 24.7703C0.710899 24.7703 0 24.0594 0 23.1824C0 22.3055 0.710899 21.5946 1.58784 21.5946H4.76351C5.64045 21.5946 6.35135 22.3055 6.35135 23.1824C6.35135 24.0594 5.64045 24.7703 4.76351 24.7703H1.58784ZM42.2365 24.7703C41.3595 24.7703 40.6486 24.0594 40.6486 23.1824C40.6486 22.3055 41.3595 21.5946 42.2365 21.5946H45.4122C46.2891 21.5946 47 22.3055 47 23.1824C47 24.0594 46.2891 24.7703 45.4122 24.7703H42.2365ZM23.5 40.6486C22.4477 40.6486 21.5946 41.5017 21.5946 42.5541V45.0946C21.5946 46.1469 22.4477 47 23.5 47C24.5523 47 25.4054 46.1469 25.4054 45.0946V42.5541C25.4054 41.5017 24.5523 40.6486 23.5 40.6486ZM35.0095 37.7041C34.2654 36.96 34.2654 35.7536 35.0095 35.0095C35.7536 34.2654 36.96 34.2654 37.7041 35.0095L39.8816 37.187C40.6257 37.9311 40.6257 39.1375 39.8816 39.8816C39.1375 40.6257 37.9311 40.6257 37.187 39.8816L35.0095 37.7041ZM37.8221 6.42841C38.5662 5.6843 39.7727 5.6843 40.5168 6.42841C41.2609 7.17251 41.2609 8.37895 40.5168 9.12306L38.3393 11.3005C37.5952 12.0447 36.3887 12.0447 35.6446 11.3005C34.9005 10.5564 34.9005 9.35001 35.6446 8.6059L37.8221 6.42841ZM11.3005 35.0095C10.5564 34.2654 9.35001 34.2654 8.6059 35.0095L6.42841 37.187C5.6843 37.9311 5.6843 39.1375 6.42841 39.8816C7.17251 40.6257 8.37895 40.6257 9.12306 39.8816L11.3005 37.7041C12.0447 36.96 12.0447 35.7536 11.3005 35.0095ZM23.5 38.1081C31.5678 38.1081 38.1081 31.4257 38.1081 23.1824C38.1081 14.9392 31.5678 8.25676 23.5 8.25676C15.4322 8.25676 8.89189 14.9392 8.89189 23.1824C8.89189 31.4257 15.4322 38.1081 23.5 38.1081ZM23.5 35C29.8513 35 35 29.8513 35 23.5C35 17.1487 29.8513 12 23.5 12C17.1487 12 12 17.1487 12 23.5C12 29.8513 17.1487 35 23.5 35Z"/>
</mask>
<path fill-rule="evenodd" clip-rule="evenodd" d="M21.5946 1.90541C21.5946 0.853079 22.4477 0 23.5 0C24.5523 0 25.4054 0.853079 25.4054 1.90541V4.44595C25.4054 5.49827 24.5523 6.35135 23.5 6.35135C22.4477 6.35135 21.5946 5.49827 21.5946 4.44595V1.90541ZM6.42841 6.42841C5.6843 7.17251 5.6843 8.37895 6.42841 9.12306L8.6059 11.3005C9.35001 12.0447 10.5564 12.0447 11.3005 11.3005C12.0447 10.5564 12.0447 9.35001 11.3005 8.6059L9.12305 6.42841C8.37895 5.6843 7.17251 5.6843 6.42841 6.42841ZM1.58784 24.7703C0.710899 24.7703 0 24.0594 0 23.1824C0 22.3055 0.710899 21.5946 1.58784 21.5946H4.76351C5.64045 21.5946 6.35135 22.3055 6.35135 23.1824C6.35135 24.0594 5.64045 24.7703 4.76351 24.7703H1.58784ZM42.2365 24.7703C41.3595 24.7703 40.6486 24.0594 40.6486 23.1824C40.6486 22.3055 41.3595 21.5946 42.2365 21.5946H45.4122C46.2891 21.5946 47 22.3055 47 23.1824C47 24.0594 46.2891 24.7703 45.4122 24.7703H42.2365ZM23.5 40.6486C22.4477 40.6486 21.5946 41.5017 21.5946 42.5541V45.0946C21.5946 46.1469 22.4477 47 23.5 47C24.5523 47 25.4054 46.1469 25.4054 45.0946V42.5541C25.4054 41.5017 24.5523 40.6486 23.5 40.6486ZM35.0095 37.7041C34.2654 36.96 34.2654 35.7536 35.0095 35.0095C35.7536 34.2654 36.96 34.2654 37.7041 35.0095L39.8816 37.187C40.6257 37.9311 40.6257 39.1375 39.8816 39.8816C39.1375 40.6257 37.9311 40.6257 37.187 39.8816L35.0095 37.7041ZM37.8221 6.42841C38.5662 5.6843 39.7727 5.6843 40.5168 6.42841C41.2609 7.17251 41.2609 8.37895 40.5168 9.12306L38.3393 11.3005C37.5952 12.0447 36.3887 12.0447 35.6446 11.3005C34.9005 10.5564 34.9005 9.35001 35.6446 8.6059L37.8221 6.42841ZM11.3005 35.0095C10.5564 34.2654 9.35001 34.2654 8.6059 35.0095L6.42841 37.187C5.6843 37.9311 5.6843 39.1375 6.42841 39.8816C7.17251 40.6257 8.37895 40.6257 9.12306 39.8816L11.3005 37.7041C12.0447 36.96 12.0447 35.7536 11.3005 35.0095ZM23.5 38.1081C31.5678 38.1081 38.1081 31.4257 38.1081 23.1824C38.1081 14.9392 31.5678 8.25676 23.5 8.25676C15.4322 8.25676 8.89189 14.9392 8.89189 23.1824C8.89189 31.4257 15.4322 38.1081 23.5 38.1081ZM23.5 35C29.8513 35 35 29.8513 35 23.5C35 17.1487 29.8513 12 23.5 12C17.1487 12 12 17.1487 12 23.5C12 29.8513 17.1487 35 23.5 35Z" fill="#23263D"/>
<path d="M6.42841 9.12306L2.89287 12.6586L2.89287 12.6586L6.42841 9.12306ZM6.42841 6.42841L2.89287 2.89287L2.89287 2.89287L6.42841 6.42841ZM11.3005 11.3005L7.76501 7.76501L7.76501 7.76502L11.3005 11.3005ZM11.3005 8.6059L14.8361 5.07036L14.8361 5.07036L11.3005 8.6059ZM9.12305 6.42841L5.58752 9.96394L5.58752 9.96394L9.12305 6.42841ZM35.0095 35.0095L31.474 31.4739L31.4739 31.474L35.0095 35.0095ZM39.8816 37.187L36.3461 40.7225L36.3461 40.7225L39.8816 37.187ZM39.8816 39.8816L36.3461 36.3461L36.3461 36.3461L39.8816 39.8816ZM37.187 39.8816L33.6514 43.4172L33.6515 43.4172L37.187 39.8816ZM40.5168 6.42841L36.9812 9.96394L36.9812 9.96395L40.5168 6.42841ZM37.8221 6.42841L34.2866 2.89286L34.2866 2.89287L37.8221 6.42841ZM40.5168 9.12306L36.9812 5.58752L36.9812 5.58752L40.5168 9.12306ZM38.3393 11.3005L34.8037 7.76502L34.8037 7.76502L38.3393 11.3005ZM35.6446 11.3005L32.1091 14.8361L32.1091 14.8361L35.6446 11.3005ZM35.6446 8.6059L32.1091 5.07036L32.1091 5.07037L35.6446 8.6059ZM8.6059 35.0095L5.07037 31.4739L5.07036 31.474L8.6059 35.0095ZM11.3005 35.0095L7.76501 38.545L7.76502 38.545L11.3005 35.0095ZM6.42841 37.187L9.96394 40.7225H9.96394L6.42841 37.187ZM6.42841 39.8816L2.89287 43.4172L2.89287 43.4172L6.42841 39.8816ZM9.12306 39.8816L5.58752 36.3461L5.58752 36.3461L9.12306 39.8816ZM11.3005 37.7041L14.8361 41.2397L11.3005 37.7041ZM23.5 -5C19.6863 -5 16.5946 -1.90835 16.5946 1.90541H26.5946C26.5946 3.61451 25.2091 5 23.5 5V-5ZM30.4054 1.90541C30.4054 -1.90834 27.3138 -5 23.5 -5V5C21.7909 5 20.4054 3.6145 20.4054 1.90541H30.4054ZM30.4054 4.44595V1.90541H20.4054V4.44595H30.4054ZM23.5 11.3514C27.3138 11.3514 30.4054 8.25969 30.4054 4.44595H20.4054C20.4054 2.73686 21.7909 1.35135 23.5 1.35135V11.3514ZM16.5946 4.44595C16.5946 8.2597 19.6863 11.3514 23.5 11.3514V1.35135C25.2091 1.35135 26.5946 2.73684 26.5946 4.44595H16.5946ZM16.5946 1.90541V4.44595H26.5946V1.90541H16.5946ZM9.96394 5.58752C11.1725 6.79604 11.1725 8.75543 9.96394 9.96394L2.89287 2.89287C0.196146 5.5896 0.196142 9.96186 2.89287 12.6586L9.96394 5.58752ZM12.1414 7.76501L9.96394 5.58752L2.89287 12.6586L5.07036 14.8361L12.1414 7.76501ZM7.76501 7.76502C8.97353 6.5565 10.9329 6.5565 12.1414 7.76501L5.07036 14.8361C7.76709 17.5328 12.1394 17.5328 14.8361 14.8361L7.76501 7.76502ZM7.76501 12.1414C6.5565 10.9329 6.5565 8.97353 7.76501 7.76501L14.8361 14.8361C17.5328 12.1394 17.5328 7.76709 14.8361 5.07036L7.76501 12.1414ZM5.58752 9.96394L7.76502 12.1414L14.8361 5.07036L12.6586 2.89287L5.58752 9.96394ZM9.96394 9.96394C8.75543 11.1725 6.79604 11.1725 5.58752 9.96394L12.6586 2.89287C9.96186 0.196141 5.5896 0.196144 2.89287 2.89287L9.96394 9.96394ZM-5 23.1824C-5 26.8208 -2.05052 29.7703 1.58784 29.7703V19.7703C3.47232 19.7703 5 21.2979 5 23.1824H-5ZM1.58784 16.5946C-2.05053 16.5946 -5 19.5441 -5 23.1824H5C5 25.0669 3.47233 26.5946 1.58784 26.5946V16.5946ZM4.76351 16.5946H1.58784V26.5946H4.76351V16.5946ZM11.3514 23.1824C11.3514 19.5441 8.40188 16.5946 4.76351 16.5946V26.5946C2.87902 26.5946 1.35135 25.0669 1.35135 23.1824H11.3514ZM4.76351 29.7703C8.40188 29.7703 11.3514 26.8208 11.3514 23.1824H1.35135C1.35135 21.2979 2.87903 19.7703 4.76351 19.7703V29.7703ZM1.58784 29.7703H4.76351V19.7703H1.58784V29.7703ZM35.6486 23.1824C35.6486 26.8208 38.5981 29.7703 42.2365 29.7703V19.7703C44.121 19.7703 45.6486 21.2979 45.6486 23.1824H35.6486ZM42.2365 16.5946C38.5981 16.5946 35.6486 19.5441 35.6486 23.1824H45.6486C45.6486 25.0669 44.121 26.5946 42.2365 26.5946V16.5946ZM45.4122 16.5946H42.2365V26.5946H45.4122V16.5946ZM52 23.1824C52 19.5441 49.0505 16.5946 45.4122 16.5946V26.5946C43.5277 26.5946 42 25.0669 42 23.1824H52ZM45.4122 29.7703C49.0505 29.7703 52 26.8208 52 23.1824H42C42 21.2979 43.5277 19.7703 45.4122 19.7703V29.7703ZM42.2365 29.7703H45.4122V19.7703H42.2365V29.7703ZM26.5946 42.5541C26.5946 44.2632 25.2091 45.6486 23.5 45.6486V35.6486C19.6863 35.6486 16.5946 38.7403 16.5946 42.5541H26.5946ZM26.5946 45.0946V42.5541H16.5946V45.0946H26.5946ZM23.5 42C25.2091 42 26.5946 43.3855 26.5946 45.0946H16.5946C16.5946 48.9083 19.6863 52 23.5 52V42ZM20.4054 45.0946C20.4054 43.3855 21.7909 42 23.5 42V52C27.3138 52 30.4054 48.9083 30.4054 45.0946H20.4054ZM20.4054 42.5541V45.0946H30.4054V42.5541H20.4054ZM23.5 45.6486C21.7909 45.6486 20.4054 44.2631 20.4054 42.5541H30.4054C30.4054 38.7403 27.3137 35.6486 23.5 35.6486V45.6486ZM31.4739 31.474C28.7772 34.1707 28.7772 38.5429 31.4739 41.2397L38.545 34.1686C39.7535 35.3771 39.7535 37.3365 38.545 38.545L31.4739 31.474ZM41.2397 31.474C38.5429 28.7772 34.1707 28.7772 31.474 31.4739L38.545 38.545C37.3365 39.7535 35.3771 39.7535 34.1686 38.545L41.2397 31.474ZM43.4172 33.6514L41.2397 31.474L34.1686 38.545L36.3461 40.7225L43.4172 33.6514ZM43.4172 43.4172C46.1139 40.7204 46.1139 36.3482 43.4172 33.6514L36.3461 40.7225C35.1376 39.514 35.1376 37.5546 36.3461 36.3461L43.4172 43.4172ZM33.6515 43.4172C36.3482 46.1139 40.7204 46.1139 43.4172 43.4172L36.3461 36.3461C37.5546 35.1376 39.514 35.1376 40.7225 36.3461L33.6515 43.4172ZM31.4739 41.2397L33.6514 43.4172L40.7225 36.3461L38.545 34.1686L31.4739 41.2397ZM44.0523 2.89287C41.3556 0.196137 36.9833 0.19615 34.2866 2.89286L41.3576 9.96395C40.1491 11.1724 38.1897 11.1725 36.9812 9.96394L44.0523 2.89287ZM44.0523 12.6586C46.749 9.96187 46.749 5.5896 44.0523 2.89286L36.9812 9.96395C35.7727 8.75543 35.7727 6.79603 36.9812 5.58752L44.0523 12.6586ZM41.8748 14.8361L44.0523 12.6586L36.9812 5.58752L34.8037 7.76502L41.8748 14.8361ZM32.1091 14.8361C34.8058 17.5328 39.1781 17.5328 41.8748 14.8361L34.8037 7.76502C36.0123 6.55649 37.9716 6.55651 39.1801 7.76501L32.1091 14.8361ZM32.1091 5.07037C29.4124 7.7671 29.4124 12.1394 32.1091 14.8361L39.1802 7.76502C40.3887 8.97353 40.3887 10.9329 39.1802 12.1414L32.1091 5.07037ZM34.2866 2.89287L32.1091 5.07036L39.1801 12.1414L41.3576 9.96394L34.2866 2.89287ZM12.1414 38.545C10.9329 39.7535 8.97353 39.7535 7.76501 38.545L14.8361 31.4739C12.1394 28.7772 7.76709 28.7772 5.07037 31.4739L12.1414 38.545ZM9.96394 40.7225L12.1414 38.545L5.07036 31.474L2.89287 33.6514L9.96394 40.7225ZM9.96394 36.3461C11.1725 37.5546 11.1725 39.514 9.96394 40.7225L2.89287 33.6514C0.196142 36.3482 0.196145 40.7204 2.89287 43.4172L9.96394 36.3461ZM5.58752 36.3461C6.79604 35.1376 8.75543 35.1376 9.96394 36.3461L2.89287 43.4172C5.5896 46.1139 9.96186 46.1139 12.6586 43.4172L5.58752 36.3461ZM7.76502 34.1686L5.58752 36.3461L12.6586 43.4172L14.8361 41.2397L7.76502 34.1686ZM7.76502 38.545C6.5565 37.3365 6.5565 35.3771 7.76502 34.1686L14.8361 41.2397C17.5328 38.5429 17.5328 34.1707 14.8361 31.4739L7.76502 38.545ZM33.1081 23.1824C33.1081 28.7661 28.7056 33.1081 23.5 33.1081V43.1081C34.4301 43.1081 43.1081 34.0852 43.1081 23.1824H33.1081ZM23.5 13.2568C28.7056 13.2568 33.1081 17.5987 33.1081 23.1824H43.1081C43.1081 12.2797 34.4301 3.25676 23.5 3.25676V13.2568ZM13.8919 23.1824C13.8919 17.5987 18.2944 13.2568 23.5 13.2568V3.25676C12.5699 3.25676 3.89189 12.2797 3.89189 23.1824H13.8919ZM23.5 33.1081C18.2944 33.1081 13.8919 28.7661 13.8919 23.1824H3.89189C3.89189 34.0852 12.5699 43.1081 23.5 43.1081V33.1081ZM30 23.5C30 27.0899 27.0899 30 23.5 30V40C32.6127 40 40 32.6127 40 23.5H30ZM23.5 17C27.0899 17 30 19.9101 30 23.5H40C40 14.3873 32.6127 7 23.5 7V17ZM17 23.5C17 19.9101 19.9101 17 23.5 17V7C14.3873 7 7 14.3873 7 23.5H17ZM23.5 30C19.9101 30 17 27.0899 17 23.5H7C7 32.6127 14.3873 40 23.5 40V30Z" fill="#23263D" mask="url(#path-1-inside-1_75_11)"/>
</svg>
