<svg width="26" height="26" viewBox="0 0 26 26" fill="none" xmlns="http://www.w3.org/2000/svg">
<path d="M25.7501 19.2617V24.2711C25.7501 25.0149 25.175 25.632 24.4333 25.6844C23.8136 25.7282 23.3082 25.75 22.9167 25.75C10.3982 25.75 0.250061 15.6018 0.250061 3.08333C0.250061 2.69192 0.271949 2.1864 0.315724 1.56679C0.368169 0.824997 0.985226 0.25 1.72886 0.25H6.73854C7.10217 0.25 7.40672 0.525428 7.44323 0.887217C7.47601 1.21202 7.50648 1.47278 7.53466 1.66953C7.82122 3.67085 8.40656 5.57576 9.24405 7.33763C9.37848 7.62042 9.29082 7.95892 9.03601 8.14092L5.97842 10.3251C7.83988 14.6732 11.3268 18.1602 15.675 20.0217L17.8551 16.9694C18.0394 16.7115 18.382 16.6228 18.6681 16.7587C20.4299 17.5955 22.3346 18.1802 24.3357 18.4661C24.5312 18.4941 24.7903 18.5243 25.1128 18.5569C25.4747 18.5934 25.7501 18.898 25.7501 19.2617Z" fill="#23263D"/>
</svg>
